<?xml version="1.0" encoding="UTF-8" standalone="no"?>
<!-- Generator: Adobe Illustrator 14.0.0, SVG Export Plug-In  -->

<svg
   xmlns:dc="http://purl.org/dc/elements/1.1/"
   xmlns:cc="http://creativecommons.org/ns#"
   xmlns:rdf="http://www.w3.org/1999/02/22-rdf-syntax-ns#"
   xmlns:svg="http://www.w3.org/2000/svg"
   xmlns="http://www.w3.org/2000/svg"
   xmlns:xlink="http://www.w3.org/1999/xlink"
   xmlns:sodipodi="http://sodipodi.sourceforge.net/DTD/sodipodi-0.dtd"
   xmlns:inkscape="http://www.inkscape.org/namespaces/inkscape"
   version="1.1"
   x="0px"
   y="0px"
   width="195.048"
   height="34.060001"
   viewBox="0 0 195.048 34.060001"
   enable-background="new 0 0 288 288"
   xml:space="preserve"
   id="svg4059"
   sodipodi:docname="logo.svg"
   inkscape:version="0.92.2 (5c3e80d, 2017-08-06)"><metadata
     id="metadata4063"><rdf:RDF><cc:Work
         rdf:about=""><dc:format>image/svg+xml</dc:format><dc:type
           rdf:resource="http://purl.org/dc/dcmitype/StillImage" /><dc:title></dc:title></cc:Work></rdf:RDF></metadata><sodipodi:namedview
     pagecolor="#ffffff"
     bordercolor="#666666"
     borderopacity="1"
     objecttolerance="10"
     gridtolerance="10"
     guidetolerance="10"
     inkscape:pageopacity="0"
     inkscape:pageshadow="2"
     inkscape:window-width="1920"
     inkscape:window-height="1025"
     id="namedview4061"
     showgrid="false"
     fit-margin-top="0"
     fit-margin-left="0"
     fit-margin-right="0"
     fit-margin-bottom="0"
     inkscape:zoom="2.91"
     inkscape:cx="95.507"
     inkscape:cy="16.935"
     inkscape:window-x="0"
     inkscape:window-y="27"
     inkscape:window-maximized="1"
     inkscape:current-layer="svg4059" /><defs
     id="defs3901" /><g
     id="g3916"
     transform="translate(-48.493,-126.875)"><defs
       id="defs3904"><path
         id="SVGID_10_"
         d="m 52.472,133.295 c -0.354,0.429 -0.688,0.876 -1.001,1.338 -1.879,2.797 -2.978,6.163 -2.978,9.786 0,6.262 3.285,11.744 8.214,14.856 -0.32,-0.655 -0.611,-1.323 -0.853,-2.01 -0.265,-0.749 -0.475,-1.518 -0.619,-2.312 -0.068,-0.372 -0.111,-0.745 -0.124,-1.12 -0.013,-0.374 0.005,-0.749 0.059,-1.125 0.073,-0.5 0.241,-0.949 0.469,-1.368 0.228,-0.421 0.514,-0.81 0.821,-1.189 0.067,-0.083 0.136,-0.165 0.204,-0.248 0.005,-0.008 0.005,-0.02 0.014,-0.06 -0.794,-0.102 -1.369,-0.485 -1.672,-1.221 -0.129,-0.315 -0.361,-0.448 -0.632,-0.514 -0.091,-0.022 -0.187,-0.037 -0.284,-0.049 -0.166,-0.02 -0.334,-0.012 -0.497,-0.037 -0.313,-0.049 -0.526,-0.218 -0.613,-0.477 -0.029,-0.086 -0.044,-0.184 -0.044,-0.29 10e-4,-0.155 -0.009,-0.258 -0.196,-0.288 -0.289,-0.047 -0.521,-0.145 -0.706,-0.278 -0.092,-0.067 -0.172,-0.144 -0.241,-0.227 -0.088,-0.105 -0.152,-0.226 -0.205,-0.35 -0.114,-0.264 -0.16,-0.557 -0.149,-0.847 10e-4,-0.002 0,-0.004 0,-0.007 0.006,-0.106 0.018,-0.213 0.036,-0.316 0.117,-0.651 0.289,-1.292 0.427,-1.94 0.115,-0.543 0.214,-1.089 0.323,-1.634 0.12,-0.595 0.506,-1.007 0.977,-1.34 0.129,-0.092 0.23,-0.193 0.307,-0.309 0.077,-0.116 0.13,-0.249 0.163,-0.4 0.116,-0.531 0.396,-0.832 0.833,-0.903 0.146,-0.023 0.309,-0.021 0.49,0.006 0.135,0.02 0.269,0.052 0.405,0.068 0.16,0.018 0.317,0.027 0.473,0.023 0.465,-0.011 0.905,-0.134 1.309,-0.428 0.585,-0.424 1.184,-0.83 1.766,-1.258 0.075,-0.054 0.117,-0.195 0.12,-0.296 0.009,-0.42 -0.02,-0.841 -0.005,-1.26 0.009,-0.246 0.047,-0.47 0.115,-0.671 0.2,-0.604 0.661,-1.001 1.373,-1.18 0.501,-0.126 0.912,-0.394 1.279,-0.738 0.028,-0.027 0.057,-0.073 0.075,-0.119 0.018,-0.047 0.026,-0.093 0.011,-0.118 -0.138,-0.255 -0.19,-0.496 -0.18,-0.728 0.006,-0.155 0.04,-0.306 0.094,-0.454 0.08,-0.222 0.204,-0.437 0.346,-0.651 0.044,-0.064 0.09,-0.127 0.157,-0.223 0.104,0.111 0.213,0.218 0.319,0.325 0.32,0.321 0.623,0.652 0.725,1.157 0.588,-0.126 1.188,-0.246 1.783,-0.384 0.441,-0.102 0.88,-0.169 1.318,-0.203 1.313,-0.105 2.609,0.083 3.887,0.489 0.359,0.116 0.69,0.281 1.004,0.474 0.265,0.162 0.518,0.34 0.749,0.55 0.168,0.154 0.327,0.318 0.477,0.495 0.281,0.33 0.561,0.661 0.839,0.995 0.554,0.666 1.1,1.339 1.624,2.027 0.263,0.344 0.519,0.69 0.771,1.042 0.501,0.704 0.976,1.425 1.414,2.171 0.438,0.746 0.839,1.518 1.192,2.322 0.4,0.912 0.763,1.839 1.155,2.755 0.061,0.145 0.161,0.289 0.28,0.39 1.201,1.006 2.324,2.081 3.34,3.254 0.274,-1.234 0.43,-2.513 0.43,-3.83 0,-3.623 -1.098,-6.989 -2.977,-9.786 -0.631,-0.931 -1.348,-1.798 -2.141,-2.59 -1.994,-1.995 -4.463,-3.515 -7.22,-4.374 -1.656,-0.516 -3.414,-0.794 -5.236,-0.794 -5.466,0.001 -10.359,2.502 -13.594,6.421"
         inkscape:connector-curvature="0" /></defs><clipPath
       id="SVGID_11_"><use
         xlink:href="#SVGID_10_"
         overflow="visible"
         id="use3906"
         style="overflow:visible"
         x="0"
         y="0"
         width="100%"
         height="100%" /></clipPath><linearGradient
       id="SVGID_12_"
       gradientUnits="userSpaceOnUse"
       x1="0"
       y1="288"
       x2="1"
       y2="288"
       gradientTransform="matrix(0,28.7132,28.7132,0,-8203.3369,128.8438)"><stop
         offset="0"
         style="stop-color:#149EE2"
         id="stop3909" /><stop
         offset="1"
         style="stop-color:#0167B3"
         id="stop3911" /></linearGradient><rect
       x="48.493"
       y="126.875"
       clip-path="url(#SVGID_11_)"
       width="35.146999"
       height="32.400002"
       id="rect3914"
       style="fill:url(#SVGID_12_)" /></g><g
     id="g3936"
     transform="translate(-48.493,-126.875)"><defs
       id="defs3919"><rect
         id="SVGID_9_"
         width="288"
         height="288"
         x="0"
         y="0" /></defs><clipPath
       id="SVGID_13_"><use
         xlink:href="#SVGID_9_"
         overflow="visible"
         id="use3921"
         style="overflow:visible"
         x="0"
         y="0"
         width="100%"
         height="100%" /></clipPath><path
       clip-path="url(#SVGID_13_)"
       d="m 56.082,141.191 -0.013,0.074 c 0,0 0.333,1.966 3.59,0.75 -0.204,-0.151 -0.313,-0.388 -0.309,-0.736 -0.631,0.566 -1.336,0.696 -2.088,0.61 -0.547,-0.063 -0.948,-0.334 -1.18,-0.698"
       id="path3924"
       inkscape:connector-curvature="0" /><polyline
       clip-path="url(#SVGID_13_)"
       points="56.507,139.065 56.514,139.066 56.516,139.063 56.507,139.065  "
       id="polyline3926" /><path
       clip-path="url(#SVGID_13_)"
       d="m 57.873,141.167 c 0.236,-0.214 0.276,-0.628 0.097,-0.948 -0.14,-0.25 -0.427,-0.355 -0.738,-0.247 -0.225,0.079 -0.413,0.206 -0.38,0.499 0.149,-0.02 0.278,-0.039 0.453,-0.064 -0.136,0.307 -0.043,0.514 0.216,0.677 -0.112,0.025 -0.176,0.04 -0.28,0.063 0.236,0.206 0.437,0.196 0.632,0.02"
       id="path3928"
       inkscape:connector-curvature="0" /><path
       clip-path="url(#SVGID_13_)"
       d="m 60.354,138.484 c -0.524,0.246 -1.042,0.363 -1.634,0.178 -0.321,-0.1 -0.698,-0.017 -1.05,-0.017 0.635,0.116 1.16,0.366 1.465,0.901 0.491,-0.391 0.974,-0.776 1.467,-1.168 -0.09,0.039 -0.17,0.071 -0.248,0.106"
       id="path3930"
       inkscape:connector-curvature="0" /><path
       clip-path="url(#SVGID_13_)"
       d="m 79.871,144.994 c -0.12,-0.1 -0.22,-0.245 -0.281,-0.389 -0.392,-0.916 -0.754,-1.844 -1.155,-2.755 -0.353,-0.804 -0.754,-1.576 -1.192,-2.322 -0.438,-0.747 -0.913,-1.468 -1.414,-2.171 -0.251,-0.352 -0.508,-0.699 -0.77,-1.043 -0.525,-0.687 -1.071,-1.36 -1.626,-2.027 -0.277,-0.333 -0.557,-0.664 -0.838,-0.995 -0.15,-0.176 -0.309,-0.341 -0.477,-0.494 -0.23,-0.21 -0.484,-0.388 -0.749,-0.55 -0.314,-0.193 -0.645,-0.359 -1.004,-0.474 -1.278,-0.407 -2.575,-0.594 -3.887,-0.49 -0.438,0.035 -0.877,0.102 -1.318,0.204 -0.595,0.137 -1.195,0.257 -1.782,0.383 -0.102,-0.505 -0.406,-0.835 -0.726,-1.156 -0.107,-0.108 -0.215,-0.214 -0.319,-0.325 -0.067,0.095 -0.113,0.158 -0.156,0.223 -0.143,0.213 -0.267,0.429 -0.347,0.65 -0.054,0.148 -0.088,0.299 -0.094,0.454 -0.01,0.232 0.041,0.474 0.181,0.729 0.014,0.025 0.006,0.071 -0.012,0.117 -0.018,0.046 -0.047,0.093 -0.075,0.12 -0.368,0.344 -0.777,0.611 -1.279,0.737 -0.712,0.179 -1.173,0.577 -1.374,1.181 -0.067,0.201 -0.105,0.424 -0.114,0.67 -0.015,0.42 0.014,0.841 0.005,1.26 -0.003,0.102 -0.045,0.242 -0.119,0.297 -0.583,0.428 -1.181,0.834 -1.766,1.258 -0.405,0.294 -0.845,0.416 -1.31,0.428 -0.155,0.003 -0.313,-0.005 -0.473,-0.024 -0.136,-0.015 -0.27,-0.048 -0.405,-0.068 -0.181,-0.027 -0.344,-0.028 -0.49,-0.005 -0.438,0.071 -0.717,0.371 -0.833,0.903 -0.033,0.151 -0.086,0.283 -0.163,0.399 -0.077,0.117 -0.178,0.218 -0.307,0.309 -0.471,0.334 -0.857,0.746 -0.976,1.341 -0.11,0.544 -0.209,1.091 -0.324,1.634 -0.138,0.647 -0.31,1.289 -0.427,1.94 -0.018,0.104 -0.03,0.209 -0.035,0.316 0,0.003 0,0.006 0,0.008 -0.012,0.29 0.034,0.583 0.148,0.846 0.053,0.124 0.117,0.244 0.205,0.351 0.069,0.083 0.149,0.158 0.241,0.226 0.185,0.134 0.417,0.232 0.706,0.278 0.188,0.03 0.197,0.134 0.197,0.289 -10e-4,0.105 0.014,0.202 0.043,0.288 0.087,0.261 0.3,0.429 0.613,0.478 0.164,0.025 0.332,0.018 0.497,0.037 0.097,0.012 0.193,0.025 0.283,0.048 0.272,0.067 0.503,0.2 0.634,0.515 0.302,0.735 0.877,1.119 1.671,1.222 -0.009,0.04 -0.008,0.052 -0.014,0.058 -0.067,0.084 -0.136,0.166 -0.204,0.249 -0.308,0.379 -0.594,0.769 -0.821,1.189 -0.228,0.419 -0.396,0.868 -0.469,1.367 -0.054,0.376 -0.072,0.752 -0.059,1.126 0.013,0.375 0.056,0.748 0.124,1.12 0.144,0.795 0.354,1.564 0.619,2.313 0.242,0.686 0.533,1.353 0.854,2.009 0.603,0.381 1.231,0.723 1.881,1.03 0.209,-0.836 0.458,-1.665 0.762,-2.486 0.174,-0.471 0.43,-0.923 0.711,-1.34 0.568,-0.842 1.373,-1.249 2.403,-1.176 2.249,0.159 4.379,0.725 6.388,1.77 1.644,0.856 2.678,2.135 3.174,3.861 0.772,-0.279 1.525,-0.6 2.243,-0.979 -0.005,-0.013 -0.012,-0.021 -0.015,-0.037 -0.258,-1.297 0.108,-3.49 1.683,-4.428 0.944,-0.562 1.968,-0.989 2.96,-1.466 0.26,-0.125 0.538,-0.212 0.845,-0.331 -0.232,-0.132 -0.435,-0.245 -0.635,-0.361 -1.023,-0.598 -1.984,-1.275 -2.885,-2.052 -1.259,-1.083 -1.518,-2.417 -1.117,-3.95 0.079,-0.299 0.193,-0.589 0.298,-0.901 -0.071,0.051 -0.128,0.092 -0.242,0.174 0.423,-1.012 0.56,-2.012 0.545,-3.035 -0.006,-0.438 -0.075,-0.876 -0.082,-1.315 -0.005,-0.359 0.04,-0.719 0.063,-1.079 0.013,-0.193 0.027,-0.386 0.044,-0.626 -0.474,0.116 -0.77,-0.088 -0.936,-0.472 0.076,0.7 0.209,1.394 0.213,2.088 0.004,0.917 -0.377,1.755 -0.798,2.545 -0.857,1.612 -2.22,2.698 -3.822,3.513 -0.624,0.317 -1.229,0.23 -1.818,-0.101 -0.204,-0.114 -0.4,-0.243 -0.605,-0.356 -0.191,-0.105 -0.282,-0.224 -0.215,-0.466 0.066,-0.239 0.209,-0.31 0.422,-0.32 0.009,0 0.019,-0.003 0.029,-0.002 0.612,0.102 0.926,-0.281 1.143,-0.752 0.211,-0.459 -0.004,-0.87 -0.237,-1.285 -0.201,0.056 -0.394,0.093 -0.571,0.167 -0.083,0.036 -0.155,0.133 -0.202,0.218 -0.358,0.66 -0.686,1.336 -1.073,1.979 -1.659,2.562 -4.387,1.751 -4.387,1.751 -1.474,-0.259 -3.649,-0.074 -3.649,-0.074 -0.848,0.146 -2.359,0.184 -2.359,0.184 -1.143,0 -1.437,-1.191 -1.437,-1.191 0.639,-0.417 4.447,0.172 4.447,0.172 2.516,0.362 4.205,-0.591 4.843,-1.04 -3.357,1.553 -7.392,-0.608 -10.877,0.279 -0.342,0.088 -0.488,-0.44 -0.146,-0.527 2.831,-0.721 6.128,0.621 9.023,0.258 1.062,-0.198 2.054,-0.628 2.976,-1.215 0.385,-0.245 0.595,-0.616 0.593,-1.084 -0.002,-0.42 0.031,-0.847 -0.033,-1.258 -0.192,-1.246 -1.601,-2.321 -2.891,-2.23 0,0 1.956,1.178 2.113,2.255 0.539,2.097 -3.05,2.574 -3.05,2.574 0,0 -2.123,0.472 -4.694,-0.377 0,0 -1.857,-0.419 -4.384,0.295 0,0 -0.881,0.327 -0.991,-0.467 -0.078,-0.564 0.104,-1.913 0.729,-3.797 l -0.01,-0.019 c 0.006,0 0.011,-0.001 0.016,-0.001 0.02,-0.06 0.037,-0.116 0.058,-0.178 0,0 0.266,0.09 0.645,0.101 0.974,-0.288 1.433,-1.286 1.433,-1.286 l -0.777,0.545 0.056,-0.102 c -0.294,0.387 -0.867,0.51 -1.272,0.223 -0.252,-0.179 -0.245,-0.415 0.033,-0.618 0.064,-0.047 0.131,-0.089 0.197,-0.133 0.002,0.02 -0.011,0.039 -0.006,0.059 0.26,0.037 0.72,-0.024 0.884,-0.247 0.104,-0.142 0.127,-0.648 -0.129,-0.677 0.087,-0.483 0.317,-0.679 0.875,-0.681 0.371,-0.002 0.743,0.027 1.113,0.011 0.588,-0.025 1.13,-0.212 1.602,-0.567 1.296,-0.975 2.585,-1.959 3.877,-2.94 0.013,-0.01 0.016,-0.033 0.028,-0.057 -0.279,-0.013 -0.556,-0.01 -0.83,-0.043 -0.34,-0.04 -0.648,-0.161 -0.821,-0.488 -0.202,-0.383 -0.046,-0.667 0.359,-0.801 0.365,-0.12 0.758,-0.255 1.047,-0.494 1.779,-1.469 3.872,-1.711 6.054,-1.586 0.612,0.034 1.223,0.143 1.826,0.269 -0.198,0.047 -1.106,0.286 -1.387,0.731 -0.096,0.17 -0.256,0.351 -0.293,0.555 -0.026,0.144 0.117,0.317 0.185,0.477 0.12,-0.092 0.242,-0.182 0.358,-0.279 0.027,-0.023 0.037,-0.069 0.049,-0.106 0.166,-0.517 0.595,-0.767 1.049,-1.06 0.041,0.203 0.059,0.366 0.109,0.519 0.068,0.209 -0.026,0.346 -0.181,0.446 -0.08,0.051 -0.19,0.054 -0.286,0.079 -0.019,-0.107 -0.054,-0.214 -0.052,-0.32 0.003,-0.087 0.05,-0.173 0.077,-0.259 -0.481,0.312 -0.665,0.791 -0.843,1.294 0.114,0.041 0.196,0.07 0.224,0.08 -0.056,0.183 -0.109,0.356 -0.164,0.535 l 0.416,-0.206 c 0.276,-0.096 0.487,-0.167 0.696,-0.244 0.322,-0.12 0.477,-0.364 0.479,-0.7 0.004,-0.53 -0.154,-1.02 -0.385,-1.532 0.075,0.015 0.151,0.027 0.226,0.044 0.743,0.162 1.364,0.583 1.887,1.127 0.413,0.429 0.848,0.853 1.176,1.344 0.749,1.121 1.781,2.006 2.521,3.137 1.335,2.043 2.523,4.157 3.4,6.439 0.038,0.098 0.07,0.198 0.108,0.308 -0.284,0.089 -0.552,0.173 -0.814,0.255 1.718,0.706 2.906,2.066 4.153,3.338 0.325,0.332 0.631,0.678 0.928,1.031 0.081,-0.292 0.161,-0.585 0.227,-0.884 -1.015,-1.176 -2.138,-2.252 -3.338,-3.258 m -15.616,7.224 c 1.998,0.226 3.957,0.137 5.662,-1.112 0.7,-0.512 1.343,-1.1 2.016,-1.648 0.102,-0.083 0.22,-0.169 0.343,-0.199 0.856,-0.213 1.572,-0.632 2.089,-1.36 0.014,-0.021 0.041,-0.031 0.124,-0.091 -0.086,0.253 -0.115,0.467 -0.224,0.628 -0.175,0.259 -0.213,0.533 -0.232,0.829 -0.101,1.616 -0.282,3.213 -1.115,4.653 -0.01,0.018 -0.019,0.035 -0.026,0.053 -0.542,1.31 -1.594,1.769 -2.927,1.753 -0.995,-0.013 -1.956,-0.232 -2.911,-0.483 l -5.343,-1.423 c -0.621,-0.26 -0.675,-0.392 -0.398,-0.989 0.288,-0.618 0.582,-1.232 0.893,-1.892 0.387,0.954 1.202,1.184 2.049,1.281 m -7.324,-1.44 c 0.829,-1.009 0.812,-1.067 2.106,-1.103 0.92,-0.026 1.844,0.088 2.83,0.143 -0.082,0.193 -0.124,0.298 -0.172,0.401 -0.466,0.999 -0.939,1.995 -1.397,2.998 -0.086,0.187 -0.174,0.226 -0.377,0.192 -0.617,-0.103 -1.224,-0.058 -1.839,0.271 0.157,0.02 0.277,0.011 0.378,0.052 0.255,0.103 0.547,0.179 0.741,0.356 0.347,0.316 0.434,0.669 0.235,1.188 -0.549,1.438 -0.991,2.916 -1.475,4.379 -0.018,0.053 -0.034,0.108 -0.052,0.162 -0.031,0.01 -0.062,0.021 -0.093,0.03 -0.315,-0.689 -0.649,-1.371 -0.942,-2.07 -0.495,-1.184 -0.86,-2.404 -0.986,-3.689 -0.123,-1.256 0.245,-2.339 1.043,-3.31"
       id="path3932"
       inkscape:connector-curvature="0" /><path
       clip-path="url(#SVGID_13_)"
       d="m 63.713,136.718 c 0.281,-0.261 0.525,-0.412 0.68,-0.493 -0.038,0.206 0.164,0.55 0.574,0.6 0.769,0.011 0.762,-0.892 0.762,-0.892 0.198,-0.053 0.43,-0.075 0.43,-0.075 -1.612,-0.77 -2.446,0.86 -2.446,0.86"
       id="path3934"
       inkscape:connector-curvature="0" /></g><g
     id="g3951"
     transform="translate(-48.493,-126.875)"><defs
       id="defs3939"><path
         id="SVGID_8_"
         d="m 88.465,143.985 c 0,4.188 3.042,6.883 6.83,6.883 3.574,0 5.521,-2.215 6.241,-4.829 h -3.655 c -0.346,0.934 -1.146,1.761 -2.533,1.761 -2.054,0 -3.228,-1.681 -3.228,-3.788 0,-2.241 1.174,-3.762 3.122,-3.762 1.279,0 2.16,0.641 2.48,1.627 h 3.574 c -0.4,-2.134 -2.373,-4.667 -6.028,-4.667 -4.215,0 -6.803,3.04 -6.803,6.775"
         inkscape:connector-curvature="0" /></defs><clipPath
       id="SVGID_14_"><use
         xlink:href="#SVGID_8_"
         overflow="visible"
         id="use3941"
         style="overflow:visible"
         x="0"
         y="0"
         width="100%"
         height="100%" /></clipPath><linearGradient
       id="SVGID_15_"
       gradientUnits="userSpaceOnUse"
       x1="-0.00048828119"
       y1="288"
       x2="0.99949998"
       y2="288"
       gradientTransform="matrix(0,13.6583,13.6583,0,-3838.6013,137.2109)"><stop
         offset="0"
         style="stop-color:#149EE2"
         id="stop3944" /><stop
         offset="1"
         style="stop-color:#0167B3"
         id="stop3946" /></linearGradient><rect
       x="88.464996"
       y="137.21001"
       clip-path="url(#SVGID_14_)"
       width="13.071"
       height="13.658"
       id="rect3949"
       style="fill:url(#SVGID_15_)" /></g><g
     id="g3966"
     transform="translate(-48.493,-126.875)"><defs
       id="defs3954"><path
         id="SVGID_7_"
         d="m 107.562,139.61 h -0.08 v -1.974 h -3.521 v 12.777 h 3.601 v -6.215 c 0,-2.294 1.067,-3.628 3.201,-3.628 0.72,0 1.255,0.08 1.707,0.16 v -3.361 c -0.346,-0.08 -0.667,-0.106 -1.173,-0.106 -1.708,0 -3.041,1.093 -3.735,2.347"
         inkscape:connector-curvature="0" /></defs><clipPath
       id="SVGID_16_"><use
         xlink:href="#SVGID_7_"
         overflow="visible"
         id="use3956"
         style="overflow:visible"
         x="0"
         y="0"
         width="100%"
         height="100%" /></clipPath><linearGradient
       id="SVGID_17_"
       gradientUnits="userSpaceOnUse"
       x1="-0.00048828119"
       y1="287.99899"
       x2="0.99949998"
       y2="287.99899"
       gradientTransform="matrix(0,13.1514,13.1514,0,-3679.3911,137.2656)"><stop
         offset="0"
         style="stop-color:#149EE2"
         id="stop3959" /><stop
         offset="1"
         style="stop-color:#0167B3"
         id="stop3961" /></linearGradient><rect
       x="103.961"
       y="137.263"
       clip-path="url(#SVGID_16_)"
       width="8.5089998"
       height="13.15"
       id="rect3964"
       style="fill:url(#SVGID_17_)" /></g><g
     id="g3981"
     transform="translate(-48.493,-126.875)"><defs
       id="defs3969"><path
         id="SVGID_6_"
         d="m 122.711,137.636 v 6.775 c 0,2.134 -0.986,3.229 -2.56,3.229 -1.387,0 -2.268,-1.015 -2.268,-2.881 v -7.123 h -3.601 v 7.575 c 0,4.349 2.561,5.63 4.641,5.63 1.388,0 2.695,-0.508 3.735,-2.027 h 0.08 v 1.6 h 3.575 v -12.777 h -3.602 z"
         inkscape:connector-curvature="0" /></defs><clipPath
       id="SVGID_18_"><use
         xlink:href="#SVGID_6_"
         overflow="visible"
         id="use3971"
         style="overflow:visible"
         x="0"
         y="0"
         width="100%"
         height="100%" /></clipPath><linearGradient
       id="SVGID_19_"
       gradientUnits="userSpaceOnUse"
       x1="0.0009765625"
       y1="288"
       x2="1.001"
       y2="288"
       gradientTransform="matrix(0,13.2047,13.2047,0,-3682.6436,137.6328)"><stop
         offset="0"
         style="stop-color:#149EE2"
         id="stop3974" /><stop
         offset="1"
         style="stop-color:#0167B3"
         id="stop3976" /></linearGradient><rect
       x="114.282"
       y="137.636"
       clip-path="url(#SVGID_18_)"
       width="12.031"
       height="13.205"
       id="rect3979"
       style="fill:url(#SVGID_19_)" /></g><g
     id="g3996"
     transform="translate(-48.493,-126.875)"><defs
       id="defs3984"><path
         id="SVGID_5_"
         d="m 133.271,139.236 h -0.106 v -1.6 h -3.548 v 12.777 h 3.601 v -6.749 c 0,-2.134 1.147,-3.254 2.722,-3.254 1.494,0 2.4,0.987 2.4,2.908 v 7.095 h 3.602 v -7.336 c 0,-3.921 -2.001,-5.841 -4.883,-5.841 -1.467,0 -2.907,0.586 -3.788,2"
         inkscape:connector-curvature="0" /></defs><clipPath
       id="SVGID_20_"><use
         xlink:href="#SVGID_5_"
         overflow="visible"
         id="use3986"
         style="overflow:visible"
         x="0"
         y="0"
         width="100%"
         height="100%" /></clipPath><linearGradient
       id="SVGID_21_"
       gradientUnits="userSpaceOnUse"
       x1="-0.00048828119"
       y1="288"
       x2="0.99900001"
       y2="288"
       gradientTransform="matrix(0,13.1783,13.1783,0,-3659.5645,137.2344)"><stop
         offset="0"
         style="stop-color:#149EE2"
         id="stop3989" /><stop
         offset="1"
         style="stop-color:#0167B3"
         id="stop3991" /></linearGradient><rect
       x="129.617"
       y="137.23599"
       clip-path="url(#SVGID_20_)"
       width="12.325"
       height="13.177"
       id="rect3994"
       style="fill:url(#SVGID_21_)" /></g><g
     id="g4011"
     transform="translate(-48.493,-126.875)"><defs
       id="defs3999"><path
         id="SVGID_4_"
         d="m 144.259,143.985 c 0,4.188 3.041,6.883 6.828,6.883 3.575,0 5.523,-2.215 6.243,-4.829 h -3.654 c -0.347,0.934 -1.147,1.761 -2.535,1.761 -2.053,0 -3.228,-1.681 -3.228,-3.788 0,-2.241 1.175,-3.762 3.122,-3.762 1.28,0 2.16,0.641 2.48,1.627 h 3.574 c -0.399,-2.134 -2.374,-4.667 -6.029,-4.667 -4.213,0 -6.801,3.04 -6.801,6.775"
         inkscape:connector-curvature="0" /></defs><clipPath
       id="SVGID_22_"><use
         xlink:href="#SVGID_4_"
         overflow="visible"
         id="use4001"
         style="overflow:visible"
         x="0"
         y="0"
         width="100%"
         height="100%" /></clipPath><linearGradient
       id="SVGID_23_"
       gradientUnits="userSpaceOnUse"
       x1="-0.00048828119"
       y1="287.99899"
       x2="0.99949998"
       y2="287.99899"
       gradientTransform="matrix(0,13.6583,13.6583,0,-3782.8044,137.2109)"><stop
         offset="0"
         style="stop-color:#149EE2"
         id="stop4004" /><stop
         offset="1"
         style="stop-color:#0167B3"
         id="stop4006" /></linearGradient><rect
       x="144.259"
       y="137.21001"
       clip-path="url(#SVGID_22_)"
       width="13.071"
       height="13.658"
       id="rect4009"
       style="fill:url(#SVGID_23_)" /></g><g
     id="g4026"
     transform="translate(-48.493,-126.875)"><defs
       id="defs4014"><path
         id="SVGID_3_"
         d="m 159.754,131.206 v 19.207 h 3.603 v -6.749 c 0,-2.161 1.146,-3.254 2.72,-3.254 1.495,0 2.401,0.987 2.401,2.881 v 7.122 h 3.602 v -7.336 c 0,-3.947 -2.002,-5.841 -4.855,-5.841 -1.439,0 -2.881,0.586 -3.762,2 h -0.105 v -8.03 z"
         inkscape:connector-curvature="0" /></defs><clipPath
       id="SVGID_24_"><use
         xlink:href="#SVGID_3_"
         overflow="visible"
         id="use4016"
         style="overflow:visible"
         x="0"
         y="0"
         width="100%"
         height="100%" /></clipPath><linearGradient
       id="SVGID_25_"
       gradientUnits="userSpaceOnUse"
       x1="0"
       y1="288"
       x2="1"
       y2="288"
       gradientTransform="matrix(0,19.207,19.207,0,-5365.7046,131.2031)"><stop
         offset="0"
         style="stop-color:#149EE2"
         id="stop4019" /><stop
         offset="1"
         style="stop-color:#0167B3"
         id="stop4021" /></linearGradient><rect
       x="159.754"
       y="131.20599"
       clip-path="url(#SVGID_24_)"
       width="12.325"
       height="19.207001"
       id="rect4024"
       style="fill:url(#SVGID_25_)" /></g><g
     id="g4041"
     transform="translate(-48.493,-126.875)"><defs
       id="defs4029"><path
         id="SVGID_2_"
         d="m 182.372,137.636 -1.787,5.549 c -0.347,1.12 -0.587,1.92 -0.827,3.147 h -0.105 c -0.188,-1.04 -0.562,-2.214 -0.854,-3.147 l -1.841,-5.549 h -3.735 l 4.643,12.67 -2.349,6.376 h 3.415 l 6.989,-19.046 z"
         inkscape:connector-curvature="0" /></defs><clipPath
       id="SVGID_26_"><use
         xlink:href="#SVGID_2_"
         overflow="visible"
         id="use4031"
         style="overflow:visible"
         x="0"
         y="0"
         width="100%"
         height="100%" /></clipPath><linearGradient
       id="SVGID_27_"
       gradientUnits="userSpaceOnUse"
       x1="0"
       y1="287.99899"
       x2="1"
       y2="287.99899"
       gradientTransform="matrix(0,19.0469,19.0469,0,-5305.9165,137.6406)"><stop
         offset="0"
         style="stop-color:#149EE2"
         id="stop4034" /><stop
         offset="1"
         style="stop-color:#0167B3"
         id="stop4036" /></linearGradient><rect
       x="173.222"
       y="137.636"
       clip-path="url(#SVGID_26_)"
       width="12.698"
       height="19.046"
       id="rect4039"
       style="fill:url(#SVGID_27_)" /></g><g
     id="g4057"
     transform="translate(-48.493,-126.875)"><defs
       id="defs4044"><rect
         id="SVGID_1_"
         width="288"
         height="288"
         x="0"
         y="0" /></defs><clipPath
       id="SVGID_28_"><use
         xlink:href="#SVGID_1_"
         overflow="visible"
         id="use4046"
         style="overflow:visible"
         x="0"
         y="0"
         width="100%"
         height="100%" /></clipPath><path
       clip-path="url(#SVGID_28_)"
       d="m 202.896,150.414 h -2.108 v -1.708 h -0.053 c -0.934,1.121 -2.508,2.161 -4.775,2.161 -3.468,0 -6.456,-2.694 -6.456,-6.856 0,-3.868 2.747,-6.802 6.456,-6.802 2.401,0 3.682,0.96 4.775,2.241 h 0.053 v -8.243 h 2.108 z M 196.333,149 c 2.481,0 4.643,-2.001 4.643,-4.908 0,-3.041 -2.027,-5.042 -4.588,-5.042 -3.122,0 -4.695,2.481 -4.695,4.961 -0.001,2.455 1.573,4.989 4.64,4.989"
       id="path4049"
       inkscape:connector-curvature="0" /><path
       clip-path="url(#SVGID_28_)"
       d="m 219.084,150.414 h -2.108 v -1.708 h -0.052 c -0.935,1.121 -2.509,2.161 -4.669,2.161 -3.467,0 -6.563,-2.694 -6.563,-6.856 0,-3.947 2.882,-6.802 6.697,-6.802 2.32,0 3.681,1.227 4.561,2.268 h 0.026 v -1.841 h 2.108 z M 212.549,149 c 2.4,0 4.615,-2.028 4.615,-4.908 0,-3.041 -2.055,-5.042 -4.562,-5.042 -3.201,0 -4.722,2.507 -4.722,4.961 0,2.455 1.52,4.989 4.669,4.989"
       id="path4051"
       inkscape:connector-curvature="0" /><path
       clip-path="url(#SVGID_28_)"
       d="m 221.374,137.636 h 1.682 v -4.082 h 2.107 v 4.082 h 3.414 v 1.761 h -3.414 v 6.75 c 0,2.079 0.64,2.641 2,2.641 0.533,0 1.068,-0.08 1.547,-0.214 v 1.733 c -0.56,0.188 -1.227,0.268 -1.974,0.268 -3.094,0 -3.681,-2.081 -3.681,-4.508 v -6.669 h -1.682 v -1.762 z"
       id="path4053"
       inkscape:connector-curvature="0" /><path
       clip-path="url(#SVGID_28_)"
       d="m 243.541,150.414 h -2.108 v -1.708 h -0.052 c -0.935,1.121 -2.509,2.161 -4.669,2.161 -3.468,0 -6.563,-2.694 -6.563,-6.856 0,-3.947 2.882,-6.802 6.697,-6.802 2.32,0 3.681,1.227 4.561,2.268 h 0.026 v -1.841 h 2.108 z M 237.006,149 c 2.4,0 4.614,-2.028 4.614,-4.908 0,-3.041 -2.054,-5.042 -4.562,-5.042 -3.201,0 -4.722,2.507 -4.722,4.961 10e-4,2.455 1.521,4.989 4.67,4.989"
       id="path4055"
       inkscape:connector-curvature="0" /></g></svg>