<?xml version="1.0" encoding="utf-8"?>
<!-- Generator: Adobe Illustrator 25.2.0, SVG Export Plug-In . SVG Version: 6.00 Build 0)  -->
<svg version="1.1" id="Layer_1" xmlns="http://www.w3.org/2000/svg" xmlns:xlink="http://www.w3.org/1999/xlink" x="0px" y="0px"
	 viewBox="0 0 285 288" style="enable-background:new 0 0 285 288;" xml:space="preserve">
<style type="text/css">
	.st0{clip-path:url(#SVGID_2_);}
	.st1{clip-path:url(#SVGID_4_);}
	.st2{clip-path:url(#SVGID_6_);fill:url(#SVGID_7_);}
	.st3{opacity:0.5;clip-path:url(#SVGID_9_);}
	.st4{opacity:0.1;}
	.st5{fill:#FFFFFF;}
	.st6{opacity:0.3;}
	.st7{clip-path:url(#SVGID_11_);}
	.st8{clip-path:url(#SVGID_13_);fill:url(#SVGID_14_);}
	.st9{opacity:0.5;clip-path:url(#SVGID_16_);}
	.st10{clip-path:url(#SVGID_18_);}
	.st11{clip-path:url(#SVGID_20_);fill:url(#SVGID_21_);}
	.st12{opacity:4.000000e-02;clip-path:url(#SVGID_20_);fill:#FFFFFF;}
	.st13{opacity:6.000000e-02;clip-path:url(#SVGID_20_);fill:#FFFFFF;}
	.st14{opacity:3.000000e-02;clip-path:url(#SVGID_20_);fill:#FFFFFF;}
	.st15{clip-path:url(#SVGID_23_);}
	.st16{clip-path:url(#SVGID_25_);fill:url(#SVGID_26_);}
	.st17{opacity:4.000000e-02;clip-path:url(#SVGID_25_);fill:#FFFFFF;}
	.st18{opacity:6.000000e-02;clip-path:url(#SVGID_25_);fill:#FFFFFF;}
	.st19{opacity:3.000000e-02;clip-path:url(#SVGID_25_);fill:#FFFFFF;}
	.st20{fill:#636466;}
	.st21{clip-path:url(#SVGID_28_);}
	.st22{clip-path:url(#SVGID_30_);}
	.st23{clip-path:url(#SVGID_32_);fill:url(#SVGID_33_);}
	.st24{opacity:0.5;clip-path:url(#SVGID_35_);}
	.st25{fill:url(#SVGID_36_);}
	.st26{fill:#414141;}
	.st27{clip-path:url(#SVGID_38_);}
	.st28{clip-path:url(#SVGID_40_);fill:url(#SVGID_41_);}
	.st29{opacity:4.000000e-02;clip-path:url(#SVGID_40_);fill:#FFFFFF;}
	.st30{opacity:6.000000e-02;clip-path:url(#SVGID_40_);fill:#FFFFFF;}
	.st31{opacity:3.000000e-02;clip-path:url(#SVGID_40_);fill:#FFFFFF;}
	.st32{fill:url(#SVGID_42_);}
	.st33{fill:url(#SVGID_43_);}
	.st34{clip-path:url(#SVGID_45_);}
	.st35{clip-path:url(#SVGID_47_);}
	.st36{clip-path:url(#SVGID_49_);fill:url(#SVGID_50_);}
	.st37{fill:url(#SVGID_51_);}
	.st38{fill:#FFFFFF;stroke:#FFFFFF;stroke-width:3;stroke-miterlimit:10;}
	.st39{fill:url(#SVGID_52_);}
	.st40{fill:url(#SVGID_53_);}
	.st41{fill:url(#SVGID_54_);}
	.st42{fill:url(#SVGID_55_);}
	.st43{fill:url(#SVGID_56_);}
	.st44{fill:url(#SVGID_57_);}
	.st45{fill:url(#SVGID_58_);}
	.st46{fill:url(#SVGID_59_);}
	.st47{fill:none;stroke:#808080;stroke-width:5;stroke-miterlimit:10;}
	.st48{opacity:0.79;}
	.st49{clip-path:url(#SVGID_63_);}
	.st50{clip-path:url(#SVGID_65_);fill:url(#SVGID_66_);}
	.st51{opacity:4.000000e-02;clip-path:url(#SVGID_65_);fill:#FFFFFF;}
	.st52{opacity:6.000000e-02;clip-path:url(#SVGID_65_);fill:#FFFFFF;}
	.st53{opacity:3.000000e-02;clip-path:url(#SVGID_65_);fill:#FFFFFF;}
	.st54{clip-path:url(#SVGID_68_);}
	.st55{clip-path:url(#SVGID_70_);fill:url(#SVGID_71_);}
	.st56{opacity:4.000000e-02;clip-path:url(#SVGID_70_);fill:#FFFFFF;}
	.st57{opacity:6.000000e-02;clip-path:url(#SVGID_70_);fill:#FFFFFF;}
	.st58{opacity:3.000000e-02;clip-path:url(#SVGID_70_);fill:#FFFFFF;}
	.st59{clip-path:url(#SVGID_73_);}
	.st60{clip-path:url(#SVGID_75_);fill:url(#SVGID_76_);}
	.st61{opacity:4.000000e-02;clip-path:url(#SVGID_75_);fill:#FFFFFF;}
	.st62{opacity:6.000000e-02;clip-path:url(#SVGID_75_);fill:#FFFFFF;}
	.st63{opacity:3.000000e-02;clip-path:url(#SVGID_75_);fill:#FFFFFF;}
	.st64{fill:url(#SVGID_77_);}
	.st65{fill:url(#SVGID_78_);}
	.st66{fill:url(#SVGID_79_);}
	.st67{fill:url(#SVGID_80_);}
	.st68{fill:url(#SVGID_81_);}
	.st69{fill:url(#SVGID_82_);}
	.st70{fill:url(#SVGID_83_);}
	.st71{fill:#060606;}
	.st72{fill:url(#SVGID_84_);}
	.st73{fill:url(#SVGID_85_);}
	.st74{fill:url(#SVGID_86_);}
	.st75{fill:url(#SVGID_87_);}
	.st76{fill:url(#SVGID_88_);}
	.st77{fill:url(#SVGID_89_);}
	.st78{fill:url(#SVGID_90_);}
	.st79{fill:url(#SVGID_91_);}
	.st80{fill:url(#SVGID_92_);}
	.st81{fill:url(#SVGID_93_);}
	.st82{fill:url(#SVGID_94_);}
	.st83{fill:url(#SVGID_95_);}
	.st84{fill:url(#SVGID_96_);}
	.st85{fill:url(#SVGID_97_);}
	.st86{fill:url(#SVGID_98_);}
	.st87{fill:url(#SVGID_99_);}
	.st88{fill:url(#SVGID_100_);}
	.st89{clip-path:url(#SVGID_102_);}
	.st90{clip-path:url(#SVGID_104_);}
	.st91{clip-path:url(#SVGID_108_);}
	.st92{clip-path:url(#SVGID_110_);}
	.st93{clip-path:url(#SVGID_112_);fill:url(#SVGID_113_);}
	.st94{opacity:4.000000e-02;clip-path:url(#SVGID_112_);fill:#FFFFFF;}
	.st95{opacity:6.000000e-02;clip-path:url(#SVGID_112_);fill:#FFFFFF;}
	.st96{opacity:3.000000e-02;clip-path:url(#SVGID_112_);fill:#FFFFFF;}
	.st97{clip-path:url(#SVGID_115_);}
	.st98{clip-path:url(#SVGID_117_);}
	.st99{fill:url(#SVGID_120_);}
	.st100{fill:url(#SVGID_121_);}
	.st101{fill:url(#SVGID_122_);}
	.st102{fill:url(#SVGID_123_);}
	.st103{fill:url(#SVGID_124_);}
	.st104{fill:url(#SVGID_125_);}
	.st105{fill:url(#SVGID_126_);}
	.st106{fill:url(#SVGID_127_);}
	.st107{clip-path:url(#SVGID_129_);}
	.st108{clip-path:url(#SVGID_131_);}
	.st109{clip-path:url(#SVGID_135_);}
	.st110{clip-path:url(#SVGID_137_);}
	.st111{clip-path:url(#SVGID_139_);fill:url(#SVGID_140_);}
	.st112{opacity:4.000000e-02;clip-path:url(#SVGID_139_);fill:#FFFFFF;}
	.st113{opacity:6.000000e-02;clip-path:url(#SVGID_139_);fill:#FFFFFF;}
	.st114{opacity:3.000000e-02;clip-path:url(#SVGID_139_);fill:#FFFFFF;}
	.st115{clip-path:url(#SVGID_142_);}
	.st116{clip-path:url(#SVGID_144_);}
	.st117{fill:url(#SVGID_147_);}
	.st118{fill:url(#SVGID_148_);}
</style>
<g>
	<defs>
		<rect id="SVGID_62_" x="-820.6" y="-301.4" width="533.9" height="357"/>
	</defs>
	<clipPath id="SVGID_2_">
		<use xlink:href="#SVGID_62_"  style="overflow:visible;"/>
	</clipPath>
	<g class="st0">
		<defs>
			<rect id="SVGID_64_" x="-874.3" y="-305.7" width="632.1" height="364.7"/>
		</defs>
		<clipPath id="SVGID_4_">
			<use xlink:href="#SVGID_64_"  style="overflow:visible;"/>
		</clipPath>
		<polygon style="opacity:3.000000e-02;clip-path:url(#SVGID_4_);fill:#FFFFFF;" points="57.1,-184.3 -725.7,293.2 -410.4,-353.4
			"/>
	</g>
</g>
<g>
	<g>
		<g>
			<defs>
				<polygon id="SVGID_134_" points="564.1,-536 577.8,334.7 1120.9,371 912.6,-505.7 				"/>
			</defs>
			<clipPath id="SVGID_6_">
				<use xlink:href="#SVGID_134_"  style="overflow:visible;"/>
			</clipPath>
			<g style="clip-path:url(#SVGID_6_);">
				<defs>
					<rect id="SVGID_136_" x="428.9" y="-433.1" width="1292.9" height="697.5"/>
				</defs>
				<clipPath id="SVGID_7_">
					<use xlink:href="#SVGID_136_"  style="overflow:visible;"/>
				</clipPath>
				<g style="clip-path:url(#SVGID_7_);">
					<defs>
						<rect id="SVGID_138_" x="298.6" y="-594.6" width="1530.9" height="883.2"/>
					</defs>
					<clipPath id="SVGID_9_">
						<use xlink:href="#SVGID_138_"  style="overflow:visible;"/>
					</clipPath>
					<linearGradient id="SVGID_11_" gradientUnits="userSpaceOnUse" x1="265.8353" y1="323.9338" x2="1858.59" y2="-595.6436">
						<stop  offset="0" style="stop-color:#03A1DC"/>
						<stop  offset="0.2837" style="stop-color:#039CD8"/>
						<stop  offset="0.6115" style="stop-color:#038ECE"/>
						<stop  offset="0.9601" style="stop-color:#0277BC"/>
						<stop  offset="1" style="stop-color:#0274BA"/>
					</linearGradient>
					<rect x="272.1" y="-606.4" style="clip-path:url(#SVGID_9_);fill:url(#SVGID_11_);" width="1580.3" height="941.2"/>
					<polygon style="opacity:6.000000e-02;clip-path:url(#SVGID_9_);fill:#FFFFFF;" points="648,-506 -200.5,364.5 99.8,-718.1
											"/>
					<polygon style="opacity:6.000000e-02;clip-path:url(#SVGID_9_);fill:#FFFFFF;" points="1215.1,979.1 143.4,-524 1774.8,406
											"/>
					<polygon style="opacity:6.000000e-02;clip-path:url(#SVGID_9_);fill:#FFFFFF;" points="303.1,826.9 -628.9,-280.6 618.8,202.2
											"/>
				</g>
			</g>
		</g>
	</g>
</g>
<g id="_x39_kOSlx.tif">
	<g>
		<path d="M142.1,7c78.7,0.2,139,64.5,138.4,139.8c-0.6,75.4-62.6,137.3-138.4,137.2C65.6,283.9,3.8,222.1,3.7,145.6
			C3.7,68.9,65.5,7,142.1,7z M97.7,147c-0.8-1.5-0.9-1.9-1.2-2.3c-6.6-9.5-9.9-20.1-11-31.5C84,97.5,89.8,88.8,105,84.9
			c0.1,0,0.2-0.1,0.3-0.1c8.4-2.9,15.3-0.2,21.1,5.9c12.1,12.9,18.6,28,17.9,45.9c-0.2,5-1.4,9.7-5.1,13.5c-3.3,3.5-3.3,6.1,0,9.3
			c7.7-2,10.8-7.9,12.9-14.6c0.7-2.1,1.8-4.2,3.1-6c1.9-2.5,4.5-4.3,7.7-3.2c3.3,1.1,3.5,4.2,3.7,7.1c0.3,5-2.3,8.6-5.9,11.7
			c1.6,1.1,3,2,4.3,3c1.3,1,2.4,2.4,3.7,3.3c0.8,0.5,2.3,0.7,3.1,0.3c13.5-6.8,24.5-16.4,30.7-30.5c1.4-3.3,2.2-7.1,2.3-10.7
			c0.2-5.9-0.3-11.7-0.5-17.6c-0.1-3.4,0.6-3.9,3.6-2.8c4.9,1.9,6.4,4.2,6.1,10.8c-0.3,9.4-0.9,18.8-1.3,27.7
			c2.2,0.3,4.3,0.5,6.3,0.8c-0.9,2.1-1.4,4.5-2.7,6.3c-10.1,12.9-13.8,27.7-12.8,43.8c0.3,4.8,1.1,9.5,1.5,14.3
			c0.1,1-0.1,2.2-0.7,2.9c-0.3,0.4-1.9,0-2.5-0.4c-1.7-1.1-3.5-2.2-4.7-3.8c-10.3-13-22.9-24.2-31.8-38.4c-3-4.7-8.2-6.4-13.3-5
			c-19.9,5.4-27.4,26.7-17.4,42c6.9,10.6,14.9,20.3,24.9,28.1c17.1,13.4,36.4,21.5,58.2,23c1.8,0.1,4.2-0.4,5.6-1.5
			c10.8-8.3,20.1-18.1,27.7-29.4c0.8-1.2,1.4-2.8,1.6-4.3c2.7-19.9,0.8-39.5-4.6-58.7c-2.8-10-6.4-19.6-15.2-26.3
			c-0.5-0.4-0.6-1.4-0.7-2.1c-0.3-1.5,0-3.1-0.6-4.4c-5.7-11.2-10.7-22.8-17.5-33.3c-8-12.3-17.4-23.7-26.4-35.3
			c-3.3-4.2-7.1-8.1-11.1-11.7c-3.4-3.1-7.5-5.2-12.7-5.7c0.5,1.4,0.8,2.3,1.2,3.2c3.4,9.7,2.4,11.8-7.2,15.5
			c-0.7,0.3-1.5,0.5-1.9,0.6c-1.8-5.1-0.2-9,3.6-12.3c0.4,1.2,0.8,2.3,1.1,3.3c4-1.4,4.4-2.8,1.8-8.5c-3.6,3.9-6.8,7.5-10.7,11.7
			c-0.2-2-0.8-3.5-0.5-4.6c1.6-5.4,6.5-7,11.2-9.2c-5.7-1.1-11.2-2-16.8-2.2c-13.1-0.4-25.8,1.3-37.2,8.6c-4.4,2.8-9.1,5.3-13.7,7.7
			c-3,1.6-3.9,4.3-1.5,6.7c1.5,1.5,3.7,2.4,5.8,3.1c1.6,0.5,3.4,0.4,5.9,0.6c-9.8,7.4-18.9,14.1-27.8,21.1c-5.1,4-10.7,5.7-17,5.4
			c-2.6-0.1-5.3-0.1-7.8,0.4c-3.3,0.7-4.3,3.1-2.9,6.1c1.1,2.6,0,4.2-2.3,5.1c-1.1,0.4-2.5,0-3.5,0.5c-1.4,0.7-2.6,1.9-3.9,2.9
			c1,1.2,2.1,3.3,3,3.3c2.7-0.2,5.4-1,7.9-2.1c2.1-0.9,3.9-2.5,5.8-3.9c0.2,0.3,0.3,0.6,0.5,0.8c-4.2,4.4-7.8,9.9-15.3,8.8
			c-0.6-0.1-1.7,0.9-1.9,1.5c-1.9,8.2-4.3,16.5-5.4,24.8c-0.9,7,1.8,8.7,8.8,6.9c12.9-3.3,25.7-4.1,38.6-0.2
			C86.8,145.7,91.8,146,97.7,147z M258.8,205.3c0.4,0,0.8,0,1.2,0.1c21-38.2,21.8-96.2-13.3-141.3C211.5,18.9,151.3,1.3,97.3,20.7
			C43.5,40,8.1,92,9.5,149.2c1.4,54,35.9,94.8,65.4,109.9c-0.7-1.3-1.1-2.2-1.6-3.1c-6.5-11.3-11.6-23.1-15-35.6
			c-4.6-16.8-4.2-32.5,8.6-46c0.1-0.1,0.1-0.4,0.2-1c-4.5-0.9-9.1-2.5-11-6.9c-2.2-5.1-5.7-6.9-10.9-6.9c-3.4,0-5.6-1.6-6.1-5.3
			c-0.1-1-1.2-2.6-2.1-2.8c-7.6-1.7-10.6-8.3-8.8-16.3c1.9-8.6,3.3-17.4,5.6-26c0.9-3.3,3.7-6.2,5.7-9.2c1.8-2.7,4.1-5.2,5.5-8.1
			c1.7-3.6,3.6-5.4,7.6-5.3c1.8,0,3.6,0.3,5.4,0.5c4.7,0.7,9-0.2,13-2.9c2-1.3,3.8-3,5.9-4.1c7.2-3.5,9.8-8.9,9.1-17
			c-0.7-7.9,3.2-11.9,10.7-14.5c3.1-1.1,6-2.8,8.7-4.7c1-0.7,1.6-2.9,1.3-4.1c-1.6-5.5,0.7-9.6,4.1-14.3c2.4,2.9,5.2,5.1,6.2,7.9
			c1.3,3.7,3.2,3.3,6,2.6c10.9-2.6,21.7-4.8,33-3.3c12.1,1.7,23.6,4.6,32,14.3c12.9,15,25.3,30.4,35.5,47.4
			c10,16.7,16.4,35.2,26.6,51.9c6.2,10.1,8,22.3,8.8,34.2C259.2,188.8,258.8,197.1,258.8,205.3z M139.3,278.1
			c16.7,0,32.8-2.6,44.8-6.9c1.5-0.5,3.3-0.7,2.6-3c-2-6.6-3.9-13.3-6.1-19.8c-0.4-1.2-1.7-2.5-2.8-3c-9.8-4.5-18.4-10.6-26.1-18.1
			c-0.7-0.7-2.2-1.5-3-1.3c-4,0.9-6.3-1-8.5-3.8c-1.2-1.5-2.9-2.9-4.7-3.3c-6.2-1.4-12.4-2.6-18.7-3.5c-13.2-2-21.5,1.8-26.6,14.1
			c-4.1,9.8-6.4,20.5-9.6,30.7c-0.8,2.7,1.1,3.3,2.8,4.1C101.7,273.4,121.4,278,139.3,278.1z M106.8,173.7c-0.1-0.5-0.3-0.9-0.4-1.4
			c-9,0-18.1-0.1-27.1,0.1c-1.2,0-2.7,0.7-3.5,1.5c-9,8.7-15.8,18.3-14.2,31.8c1.7,15.4,7.3,29.4,14.5,42.9c0.1,0.2,0.5,0.3,0.6,0.3
			c3.9-11.3,7.7-22.5,11.6-33.6c2.1-5.9,0.3-10-5.7-11.9c-1-0.3-2.1-0.6-3.1-0.9c0-0.4,0-0.8,0-1.2c4-0.3,8-0.4,11.9-0.9
			c1.3-0.2,3.3-0.8,3.7-1.7C99.2,190.4,103,182,106.8,173.7z M122.6,168.6c-0.6-2.3-0.9-3.9-1.3-5.5c-1.2-5.2-1.7-5.2-7-4.3
			c-6.4,1-13,1.8-19.5,1.6c-8.9-0.3-17.9-1.8-26.8-2.4c-3.2-0.2-6.5,0.3-9.9,0.5c1.1,5.7,4.4,9.3,9.1,9.6c4.6,0.3,9.3-0.3,13.9-0.4
			c10.2-0.2,20.3-0.5,30.5-0.4C115.1,167.3,118.6,168.1,122.6,168.6z M131.3,134.3c-0.2-0.1-0.5-0.2-0.7-0.2c-0.3-2.5-0.4-5-0.8-7.5
			c-2.2-13-7.2-24.6-17.6-33.1c-2.6-2.1-6-3.8-9.2-4.3c-6.7-1-12.1,3.8-13.9,11.8c-2.7,12.3-0.4,24,5.5,35
			c3.9,7.3,8.6,13.9,16.2,17.7c6.7,3.4,13.5,1.4,16.6-5.5C129.3,143.9,130,139,131.3,134.3z M100.9,200.1c6.2,2.2,11.8,5.4,18.2,3.3
			c3.2-1.1,5.8-0.6,8.4,1.3c2,1.5,4.1,2.9,6.4,4.5c0.1-0.8,0.2-1,0.2-1.2c-0.1-0.3-0.3-0.7-0.6-0.9c-4.9-3.6-7.5-8.5-8.8-14.3
			c-0.2-0.7-1.2-1.7-1.9-1.8c-5.7-0.9-10.3-3.3-13.4-9.1C106.4,188.3,103.8,194,100.9,200.1z M109.1,157.3c0.1-0.5,0.2-0.9,0.3-1.4
			c-2.3-1-4.6-2.6-7-3c-9.5-1.3-19-2.2-28.5-3.2c-9.2-1-18.4-1.9-27.5,0.5c-1.2,0.3-2.1,1.9-3.1,2.9c1.3,0.4,2.6,1.3,3.9,1.2
			c5.1-0.3,10.3-1.4,15.3-1.1c9.8,0.6,19.5,2,29.3,2.9C97.6,156.7,103.4,157,109.1,157.3z M124,163.6c0.9,3.3,1.8,6.4,2.7,9.8
			c3.7-4.2,6.9-7.9,10.2-11.6c-0.1-0.3-0.2-0.6-0.4-0.9C132.5,161.8,128.5,162.7,124,163.6z M122.7,158.3c-0.2,0.4-0.3,0.9-0.5,1.3
			c0.9,0.5,1.9,1.4,2.8,1.3c2.6-0.4,5.1-1.1,7.6-1.8c2.9-0.9,2.7-2.5,1.1-4.3C129.9,156,126.3,157.2,122.7,158.3z M147.8,223.4
			c-2.6-2.9-4.8-5.4-7-7.8c-0.2-0.2-0.5-0.2-0.8-0.3C141.3,221.1,143.5,223.5,147.8,223.4z"/>
		<path d="M137.9,67.1c-0.5,1-1.3,1.9-1.6,3c-0.6,2.4-1.6,4.3-4.3,4.6c-2.9,0.4-4.8-1-5.8-3.8c-0.9,0.2-1.7,0.4-2.9,0.7
			C127.7,66.5,132,65.2,137.9,67.1z"/>
		<path d="M78.3,105.5c-0.4,0.5-1.4,2.4-2.7,2.8c-2.2,0.7-5.1-3.6-4.7-7.2c0.1-1,1.6-2.6,2.6-2.8C76.2,98,78.3,100.8,78.3,105.5z"/>
		<path d="M128,135.5c-0.8,3-1.6,7-3.1,10.7c-2.3,5.2-7.3,7-12.6,4.8c-2.3-0.9-4.6-2.2-6.3-4c-11.3-11.8-16.4-25.9-14.3-42.3
			c0-0.1,0-0.2,0.1-0.4c2.6-12.2,11.2-15.3,20.6-7.1c7.9,6.9,11.7,16.2,14,26.2C127.2,127,127.4,130.8,128,135.5z M125.1,135.4
			c-1.1-15.1-5.4-27.2-15.9-36.5c-2.8-2.4-5.9-3.9-9.5-2.3c-3.7,1.6-5.1,4.9-5.5,8.6c-1.6,14.4,2.8,26.9,11.9,37.9
			c1.6,1.9,3.7,3.4,5.9,4.7c4.6,2.6,8.9,1.3,11-3.5C124.2,141.1,124.6,137.5,125.1,135.4z"/>
	</g>
</g>
</svg>
